<?xml version="1.0" ?><!DOCTYPE svg  PUBLIC '-//W3C//DTD SVG 1.1//EN'  'http://www.w3.org/Graphics/SVG/1.1/DTD/svg11.dtd'><svg height="100px" style="shape-rendering:geometricPrecision; text-rendering:geometricPrecision; image-rendering:optimizeQuality; fill-rule:evenodd; clip-rule:evenodd" version="1.1" viewBox="0 0 20100 30834" width="65px" xml:space="preserve" xmlns="http://www.w3.org/2000/svg" xmlns:xlink="http://www.w3.org/1999/xlink"><defs><style type="text/css">
   <![CDATA[
    .fil0 {fill:#FEFEFE}
    .fil5 {fill:black}
    .fil3 {fill:#FFC6AA}
    .fil2 {fill:#FEFEFE;fill-rule:nonzero}
    .fil1 {fill:black;fill-rule:nonzero}
    .fil4 {fill:black;fill-rule:nonzero}
   ]]>
  </style></defs><g id="Layer_x0020_1"><rect class="fil0" height="21310" rx="1196" ry="1153" width="12350" x="631" y="714"/><path class="fil1" d="M2310 0l8993 0c636,0 1213,260 1632,678 418,419 678,996 678,1632l0 10687c-106,-41 -218,-77 -337,-108l0 6221c-270,-231 -548,-462 -833,-693l0 -16107c0,-313 -128,-599 -335,-805 -206,-207 -492,-335 -805,-335l-8993 0c-313,0 -599,128 -805,335 -207,206 -335,492 -335,805l0 18118c0,313 128,598 335,805 206,206 492,335 805,335l7538 0c183,258 364,525 545,805l-4150 31c-376,3 -650,134 -834,334l-3099 0c-636,0 -1213,-260 -1632,-678 -418,-419 -678,-997 -678,-1632l0 -18118c0,-636 260,-1213 678,-1632 419,-418 996,-678 1632,-678z"/><path class="fil2" d="M10473 21871c121,90 206,226 229,385 19,57 29,117 29,181 0,25 -1,50 -4,75 88,863 235,1518 494,2083 279,610 703,1149 1337,1768 231,224 236,594 12,825 -225,230 -594,235 -825,11 -737,-719 -1237,-1363 -1584,-2120 -276,-601 -445,-1254 -551,-2053l-3609 27c-260,1 -418,117 -488,272l-11 31c-39,107 -52,228 -41,348 11,130 50,258 111,371 110,200 310,342 578,301 341,-51 560,-90 748,-124 783,-140 1176,-211 2166,-25 182,35 344,155 425,336 321,722 817,1385 1391,1997 580,620 1250,1199 1907,1739 88,62 159,149 203,257l234 587 146 387c299,308 1595,226 2883,-53 548,-119 1080,-280 1531,-470 424,-179 775,-381 989,-591 113,-111 172,-208 151,-277 -21,-46 -36,-96 -45,-149 -151,-951 -289,-1716 -410,-2389 -390,-2175 -616,-3429 -522,-6175 15,-423 -116,-775 -345,-1076 -255,-337 -638,-629 -1086,-896 -820,-488 -1253,-1250 -1691,-2020 -335,-591 -675,-1188 -1208,-1573l0 5315c-2,134 -47,269 -141,379 -210,245 -578,273 -823,64 -716,-611 -1478,-1217 -2277,-1818 -803,-604 -1656,-1214 -2549,-1827 -429,-295 -803,-331 -1076,-216 -121,51 -227,135 -311,239 -87,108 -150,237 -180,374 -68,305 17,663 322,957 810,786 1520,1515 2179,2281 600,699 1159,1430 1712,2262z"/><path class="fil3" d="M12555 19466c1103,2302 3191,-178 2046,-1452 -55,-61 -1223,-1938 -1309,-1500 -149,752 -30,1285 -271,2270 -20,82 -167,399 -169,425l-297 257z"/><path class="fil1" d="M8334 19662c-82,227 -213,430 -380,597 -295,295 -701,477 -1147,477 -447,0 -853,-182 -1146,-475 -296,-294 -478,-700 -478,-1148 0,-448 182,-853 476,-1147 180,-181 404,-319 653,-399 34,39 69,76 107,113 219,213 431,422 637,627 -79,-24 -163,-37 -249,-37 -233,0 -444,94 -597,247 -152,153 -247,364 -247,596 0,233 95,444 247,597 152,152 363,247 597,247 233,0 444,-95 597,-247 151,-152 246,-363 246,-597 0,-79 -12,-156 -32,-229 247,258 485,517 716,778z"/><path class="fil3" d="M7822 15970c-388,1287 -435,1065 946,2446 1336,1337 2411,2976 4018,3701 355,161 126,1965 1511,3261 1799,1685 1295,562 1610,3539 252,2394 485,1096 -2131,1474 -770,112 -698,454 -1201,-1157 -452,-1447 -2598,-2469 -3451,-4274 -561,-1187 -3883,820 -4207,-959 -440,-2412 2643,-887 4383,-1642 327,-142 823,-261 225,-994 -1010,-1240 -1911,-2554 -3222,-3482 -992,-703 -633,-3578 1413,-2659 392,176 211,399 106,746z"/><path class="fil1" d="M13233 12404c1432,393 2022,1430 2602,2450 361,636 718,1264 1275,1596 562,335 1056,719 1415,1193 386,508 608,1102 583,1816 -90,2627 127,3836 503,5932 122,676 260,1442 405,2351 206,554 20,1059 -429,1501 -323,317 -800,599 -1355,833 -529,224 -1132,407 -1737,539 -1752,380 -3631,298 -4143,-502 -25,-41 -46,-83 -60,-127 -41,-116 -95,-259 -159,-422l-175 -439c-656,-542 -1326,-1127 -1932,-1774 -582,-621 -1097,-1294 -1469,-2029 -587,-83 -902,-27 -1457,73 -241,43 -518,93 -785,133 -830,124 -1442,-299 -1771,-900 -137,-251 -222,-536 -248,-823 -27,-294 6,-592 106,-860l23 -55c233,-571 741,-1000 1567,-1006l3056 -23c-380,-530 -768,-1020 -1178,-1498 -633,-736 -1319,-1440 -2106,-2203 -626,-607 -796,-1373 -646,-2044 70,-315 212,-609 409,-854 200,-249 461,-452 767,-581 613,-260 1388,-222 2191,329 894,615 1759,1233 2586,1855 474,356 932,712 1372,1066l0 -4980c0,-323 262,-585 585,-585 72,0 142,13 205,38zm-2764 9463c121,90 206,226 229,385 18,57 29,117 29,181 0,25 -2,50 -5,75 88,863 235,1518 494,2083 280,610 704,1149 1338,1768 230,224 236,594 11,825 -224,230 -593,235 -824,11 -737,-719 -1238,-1363 -1584,-2120 -276,-601 -446,-1254 -552,-2053l-3608 27c-260,1 -418,117 -489,272l-10 31c-39,107 -53,228 -42,348 12,130 50,258 112,371 109,200 310,342 578,301 340,-51 559,-90 748,-124 783,-140 1176,-211 2166,-25 181,35 344,155 425,336 321,722 817,1385 1391,1997 580,620 1250,1199 1907,1739 87,62 159,149 202,257l235 587 146 387c299,308 1594,226 2883,-53 548,-119 1080,-280 1531,-470 424,-179 774,-381 989,-591 112,-111 172,-208 150,-277 -21,-46 -36,-96 -44,-149 -152,-951 -289,-1716 -410,-2389 -391,-2175 -616,-3429 -522,-6175 15,-423 -116,-775 -345,-1076 -255,-337 -639,-629 -1086,-896 -821,-488 -1254,-1250 -1691,-2020 -336,-591 -676,-1188 -1208,-1573l0 5315c-2,134 -48,269 -142,379 -209,245 -577,273 -822,64 -716,-611 -1478,-1217 -2277,-1818 -803,-604 -1657,-1214 -2550,-1827 -428,-295 -803,-331 -1075,-216 -121,51 -228,135 -311,239 -88,108 -150,237 -181,374 -68,305 18,663 322,957 811,786 1520,1515 2179,2281 601,699 1159,1430 1713,2262z"/><path class="fil4" d="M2884 3835l3835 0 0 4199 -4199 0 0 -4199 364 0zm3107 728l-2742 0 0 2743 2742 0 0 -2743z"/><rect class="fil5" height="1126" width="1126" x="4057" y="5371"/><path class="fil4" d="M7523 3835l3835 0 0 4199 -4199 0 0 -4199 364 0zm3107 728l-2743 0 0 2743 2743 0 0 -2743z"/><rect class="fil5" height="1126" width="1126" x="8695" y="5371"/><path class="fil4" d="M2884 8377l3835 0 0 4199 -4199 0 0 -4199 364 0zm3107 729l-2742 0 0 2742 2742 0 0 -2742z"/><rect class="fil5" height="1126" width="1126" x="4057" y="9914"/><path class="fil1" d="M7898 9748l0 1261 -728 0 0 -1261 728 0zm3459 -1274l0 1399 -728 0 0 -1399 728 0zm-1171 3386l1171 0 0 729 -1171 0 0 -729zm-3016 0l2093 0 0 729 -2093 0 0 -729zm0 -3386l2131 0 0 712 885 0 0 729 -885 0 0 532 2056 0 0 728 -2784 0 0 -1973 -1403 0 0 -728z"/></g></svg>